Coordinates
version=1
nRows=10
nColumns=22
inDegrees=yes

Units are S.I. units (second, meters, Newtons, ...)
If the header above contains a line with 'inDegrees', this indicates whether rotational values are in degrees (yes) or radians (no).

endheader
time	pelvis_tilt	pelvis_list	pelvis_rotation	pelvis_tx	pelvis_ty	pelvis_tz	hip_flexion_r	hip_adduction_r	hip_rotation_r	knee_angle_r	ankle_angle_r	subtalar_angle_r	hip_flexion_l	hip_adduction_l	hip_rotation_l	knee_angle_l	ankle_angle_l	subtalar_angle_l	lumbar_extension	lumbar_bending	lumbar_rotation
      2.55000000	     -3.33852094	     -2.57852493	    -42.02878780	     -0.38013164	      0.90898072	      0.00434267	    -11.23753194	     11.52233505	     11.90448330	    -11.58678332	     16.33865872	     -5.02069986	     29.07265658	     -4.70875071	     11.28458793	    -14.85083177	      6.17573143	      5.70199263	     -9.70337376	      2.49736800	      2.40954066
      2.56000000	     -3.36561797	     -2.54494671	    -42.37528192	     -0.37280980	      0.90720842	      0.01038982	    -11.72283409	     11.42699501	     12.01326771	    -11.90540098	     16.60785603	     -5.00698416	     29.18579285	     -4.53459377	     11.00498457	    -14.85811940	      6.21037467	      5.52565568	     -9.59098400	      2.41192890	      2.42305514
      2.57000000	     -3.37461814	     -2.45361077	    -42.73529604	     -0.36537596	      0.90554707	      0.01657271	    -12.12494258	     11.27278260	     12.12789852	    -12.34223699	     16.78036824	     -5.00223932	     29.30139882	     -4.28908481	     10.85778628	    -15.19550611	      6.08871222	      5.13065340	     -9.43040264	      2.25930264	      2.43456866
      2.58000000	     -3.43448399	     -2.30845534	    -43.04383388	     -0.35780959	      0.90390034	      0.02282128	    -12.40929362	     11.12636192	     12.20929348	    -12.84602203	     16.87458864	     -4.99303563	     29.54313131	     -3.98209781	     10.95784247	    -15.92549446	      5.78751960	      4.68277592	     -9.16075463	      2.10513265	      2.35549536
      2.59000000	     -3.47466806	     -2.07537244	    -43.36409129	     -0.35017223	      0.90240161	      0.02921900	    -12.58089809	     10.90428754	     12.28001336	    -13.46987444	     16.88918005	     -4.99643688	     29.82299463	     -3.58450131	     11.23357954	    -16.91854530	      5.27207125	      4.39153285	     -8.81514715	      1.84880250	      2.28939267
      2.60000000	     -3.49791315	     -1.76388422	    -43.69251194	     -0.34249394	      0.90108051	      0.03572189	    -12.63338198	     10.62044024	     12.35331589	    -14.22492351	     16.79560071	     -5.02060513	     30.16360653	     -3.10236135	     11.66386203	    -18.15454273	      4.60544797	      4.12452775	     -8.40895240	      1.51076476	      2.20697746
      2.61000000	     -3.48706073	     -1.39154987	    -44.03791955	     -0.33481928	      0.89999165	      0.04238352	    -12.58912278	     10.28465501	     12.44210127	    -15.11499187	     16.58039654	     -5.05862681	     30.55066001	     -2.55745183	     12.12975231	    -19.59356778	      3.88907800	      3.90221618	     -7.96732164	      1.08146476	      2.10562801
      2.62000000	     -3.35785076	     -0.97328469	    -44.42244937	     -0.32712051	      0.89930982	      0.04926050	    -12.53054856	      9.83719558	     12.52105050	    -16.12599023	     16.20498076	     -5.09372778	     30.85125244	     -1.93272108	     12.54777991	    -21.09243473	      3.14089507	      3.76676692	     -7.56852222	      0.50342936	      2.05144494
      2.63000000	     -3.21332892	     -0.51707746	    -44.79890454	     -0.31935452	      0.89881736	      0.05632525	    -12.38379015	      9.37253742	     12.54311196	    -17.25131264	     15.71882196	     -5.07558620	     31.22429897	     -1.29207587	     12.82380969	    -22.74274423	      2.58525199	      3.66024578	     -7.11977427	     -0.12362881	      1.97572354
      2.64000000	     -2.91598822	     -0.07341375	    -45.20054090	     -0.31150525	      0.89882248	      0.06365477	    -12.30250484	      8.81230799	     12.50583489	    -18.46786136	     15.01945593	     -5.01214937	     31.39050559	     -0.61806766	     12.94334897	    -24.28381666	      2.12298015	      3.62658010	     -6.78170816	     -0.87621240	      1.92130924
